<svg width="19" height="19" fill="currentColor" viewBox="0 0 19 19">
<path fill-rule="evenodd" d="M9.43377 0.469238C4.35572 0.469238 0.237488 4.5869 0.237488 9.66665C0.237488 13.7301 2.8725 17.177 6.52719 18.3932C6.98734 18.4779 7.15503 18.1939 7.15503 17.95C7.15503 17.732 7.14712 17.1533 7.1426 16.386C4.58438 16.9416 4.04462 15.1529 4.04462 15.1529C3.62625 14.0903 3.02325 13.8075 3.02325 13.8075C2.1882 13.2372 3.08648 13.2485 3.08648 13.2485C4.00961 13.3134 4.49517 14.1965 4.49517 14.1965C5.31554 15.6018 6.64801 15.1958 7.17196 14.9604C7.25553 14.3664 7.49322 13.961 7.75577 13.7312C5.71359 13.4992 3.5664 12.7099 3.5664 9.18561C3.5664 8.18174 3.92492 7.36024 4.51324 6.71772C4.41839 6.4851 4.10277 5.54955 4.60358 4.28371C4.60358 4.28371 5.37539 4.03641 7.13244 5.2266C7.86586 5.02221 8.65292 4.92058 9.4349 4.91663C10.2163 4.92058 11.0028 5.02221 11.7374 5.2266C13.4933 4.03641 14.264 4.28371 14.264 4.28371C14.7659 5.54955 14.4503 6.4851 14.356 6.71772C14.9454 7.36024 15.3011 8.18174 15.3011 9.18561C15.3011 12.7189 13.1506 13.4964 11.1022 13.7239C11.4319 14.0079 11.7261 14.5691 11.7261 15.4273C11.7261 16.6565 11.7148 17.6485 11.7148 17.95C11.7148 18.1961 11.8808 18.4824 12.3471 18.3926C15.999 17.1736 18.6317 13.729 18.6317 9.66665C18.6317 4.5869 14.5135 0.469238 9.43377 0.469238Z" />
</svg>
