<svg width="61" height="40" viewBox="0 0 61 40">
  <path fill="#F84525" d="M48.8149 37.1173V34.2345L45.0224 34.2089L41.23 34.1704L48.0718 28.6483L54.9007 23.1262L54.9648 25.5734L55.0288 28.0205L57.95 28.059L60.8584 28.0846V31.1595V34.2345H57.9116H54.9648V37.1173V40H51.8898H48.8149V37.1173Z" />
  <path fill="currentColor" d="M0 20.0769C0 9.12236 0.0256246 0.153748 0.0640615 0.153748C0.0896861 0.153748 6.26521 5.11211 13.7732 11.1723C22.4728 18.2063 27.4824 22.1653 27.5849 22.1012C27.7514 21.9987 52.3382 2.17809 53.9782 0.819987L54.9648 0V8.90455V17.8091L41.3581 28.802C33.8629 34.8366 27.6746 39.8334 27.5977 39.8975C27.4952 39.9616 25.0737 38.0782 20.615 34.4779L13.7732 28.9558L13.7348 34.4779L13.7092 40H6.85458H0V20.0769Z" />
</svg>
