<svg width="18" height="15" fill="currentColor" viewBox="0 0 18 15">
  <path fill-rule="evenodd" d="M17.5 0.27707C16.7796 0.71785 15.9877 1.02921 15.16 1.19707C14.8179 0.820579 14.4012 0.519446 13.9363 0.312846C13.4715 0.106245 12.9687 -0.00129568 12.46 -0.00292969C11.4685 0.00998228 10.5227 0.41621 9.83074 1.1264C9.13874 1.83659 8.75719 2.79257 8.77 3.78407C8.76925 4.07412 8.79942 4.36342 8.86 4.64707C7.3834 4.56474 5.9412 4.16925 4.62915 3.48685C3.3171 2.80445 2.16523 1.85075 1.25 0.68907C0.924791 1.26971 0.752723 1.92357 0.75 2.58907C0.748586 3.20892 0.898067 3.81979 1.18554 4.36895C1.47301 4.9181 1.88983 5.38903 2.4 5.74107C1.80977 5.72129 1.23321 5.55827 0.72 5.26607V5.31407C0.714267 6.1798 1.0062 7.0212 1.54689 7.69734C2.08759 8.37348 2.8442 8.84329 3.69 9.02807C3.37073 9.11594 3.04114 9.16067 2.71 9.16107C2.47831 9.16041 2.24723 9.1373 2.02 9.09207C2.24619 9.8372 2.70111 10.4923 3.3203 10.9645C3.9395 11.4367 4.69158 11.7021 5.47 11.7231C4.16959 12.7708 2.55 13.3425 0.88 13.3431C0.585935 13.3428 0.292125 13.3258 0 13.2921C1.6789 14.402 3.64736 14.9933 5.66 14.9921C12.45 14.9921 16.17 9.22007 16.17 4.21507L16.15 3.72507C16.8815 3.19136 17.5086 2.52765 18 1.76707C17.3284 2.07498 16.6133 2.27736 15.88 2.36707C16.6547 1.88892 17.2301 1.14652 17.5 0.27707Z" />
</svg>
